# xmcd
#
# Track frame offsets:
#	150
#	10247
#	21900
#	33815
#	46207
#	57410
#	73032
#	85642
#	97182
#	110762
#	122995
#	135502
#	145832
#	157845
#
# Disc length: 2321 seconds
# Revision: 2
# Processed by: cddbd v1.5.2PL0 Copyright (c) Steve Scherf et al.
# Submitted via: dBpowerAMP V12.0
#
DISCID=b9090f0e
DTITLE=John Lee Hooker - The Best of John Lee Hooker
DYEAR=1986
DGENRE=Blues
TTITLE0=Dimples
TTITLE1=Boogie Chillun
TTITLE2=Little Wheel
TTITLE3=Crawlin King Snake
TTITLE4=No Shoes
TTITLE5=Tupelo
TTITLE6=Drugstore Woman
TTITLE7=Boom Boom
TTITLE8=Hobo Blues
TTITLE9=I m In The Mood
TTITLE10=Whiskey and Wimmen
TTITLE11=Dusty Road
TTITLE12=Will The Circle Be Unbroken
TTITLE13=It Serve You Right To Suffer
EXTD=
EXTT0=
EXTT1=
EXTT2=
EXTT3=
EXTT4=
EXTT5=
EXTT6=
EXTT7=
EXTT8=
EXTT9=
EXTT10=
EXTT11=
EXTT12=
EXTT13=
PLAYORDER=
